<svg enable-background="new 0 0 519.7 134.5" viewBox="0 0 519.7 134.5" xmlns="http://www.w3.org/2000/svg"><g fill="#004a93"><path d="m47 72.6h-19l10.1-32.9zm-27.9 33.3 6-20.1h24.4l6 20.1h20.2l-21.5-76.2c-1.2-5-3.6-6.6-8.9-6.6h-29.8v6.9h2.4c3.6 0 5.4 1.1 5.4 3.9 0 1.7 0 2.9-1.8 7l-21.5 65"/><path d="m101.2 105.9v-76.7c0-4-2.4-6.1-6.5-6.1h-18.5v6.9h1.2c3.6 0 5.4 1.5 5.4 4.7v71.2m51.7 0v-76.7c0-4-2.4-6.1-6.5-6.1h-18.5v6.9h1.2c3.6 0 5.4 1.5 5.4 4.7v71.2"/><path d="m168.5 30.4c0-5.5-4.2-8.7-10.7-8.7-7.1 0-10.7 3.2-10.7 8.7 0 5.6 3.6 8.9 10.7 8.9 6.5 0 10.7-3.3 10.7-8.9m-.6 75.5v-55.9c0-3.9-2.4-6.1-6-6.1h-18.5v6.7h1.2c3.6 0 4.8 1.5 4.8 4.9v50.4m62.5-30.1v12.4c-3.6 3.6-7.7 5.6-11.3 5.6s-5.4-1.7-5.4-6.4c0-5.1 1.2-7.1 5.4-8.7 3-1.2 6-2 11.3-2.9m-26.2-14.8 1.8-.7c4.8-1.9 7.7-2.6 11.3-3.3 1.8-.2 4.2-.5 5.4-.5 6 0 7.7 2 7.7 7.4v1.5c-8.3 1.4-10.7 1.8-15.5 2.9-2.4.6-4.8 1.4-7.1 2.4-7.7 3.1-11.3 9-11.3 18.4 0 11.7 4.8 17.3 15.5 17.3 4.2 0 8.3-1 11.3-2.9 3-1.4 4.2-2.1 7.7-5.4v1.9c0 3.9 1.8 5.7 5.4 5.7h17.9v-6.4h-.6c-3.6 0-5.4-1.6-5.4-4.8v-30.3c0-15.8-5.4-21.2-20.8-21.2-5.4 0-10.1.6-14.9 1.7s-7.1 2-12.5 4.8m82.1 56.4v-42c4.2-3.9 7.1-5.4 11.3-5.4s5.4 1.8 5.4 8.1v39.3h18.5v-42.3c0-8.7-1.2-12.4-3.6-15.7-3-3.2-6.5-4.7-11.9-4.7-7.1 0-12.5 2.6-20.8 9.8v-3.3c0-3.9-1.8-5.8-5.4-5.8h-17.9v6.7h.6c3.6 0 5.4 1.5 5.4 4.9v50.4"/><g transform="matrix(6.78093 0 0 -6.78093 -9880.484 5165.031)"><path d="m1509.6 747.8h-4l3.9 5.5v1.9h-5.8c-.7 0-1-.3-1-1v-1.7h1v.2c0 .5.3.7.8.7h2.1l-4-5.5v-1.9h7"/><path d="m1525.1 746.6v10.3c0 .8-.4 1.1-1.1 1.1h-2.4v-1.1h.3c.4 0 .6-.2.6-.7v-9.6zm1.4 0h2.5v7.8c0 .8-.4 1.1-1.1 1.1h-1.4zm-5.4 0v8.9h-1.4c-.8 0-1.1-.3-1.1-1.1v-7.8zm11 5.2c0-4.8-3.5-8.4-8.3-8.4s-8.3 3.5-8.3 8.4c0 4.8 3.5 8.4 8.3 8.4s8.3-3.6 8.3-8.4m1.6 0c0 5.7-4.2 9.9-9.9 9.9-5.6 0-9.9-4.2-9.9-9.9s4.3-9.9 9.9-9.9c5.7 0 9.9 4.2 9.9 9.9"/></g></g></svg>