<svg viewBox="0 0 139.93 92.44" xmlns="http://www.w3.org/2000/svg"><g fill="#fff"><path d="m59.43 84.64-1.4 5c-.3 0-.7.1-1.2.1-2.7 0-2.4-.8-1.3-5.2 1.2-4.6 1.9-5.4 3.5-5.4s1.6 1.1 1.2 2.5h4.1c.7-2.6.2-4.9-4.6-4.9-5.3 0-6.8 1.1-8.5 7.8-1.6 6.2-1.1 7.8 4.7 7.8 2.7 0 3.9-.2 5.6-.5l1.9-7.2z"/><path d="m69.13 89.64c-.5 0-.7-.2-.6-.6l.9-3.6h5.5l.6-2.4h-5.5l.6-2.4c.2-.6.6-1.2 1.5-1.2h4.4l.6-2.4h-6.4c-2.7 0-3.4.5-4.5 4.5l-1.8 7.2c-.6 2.5.1 3.5 2.1 3.5h5.5c1.1 0 1.8-.6 2.1-1.5l.5-1.2z"/><path d="m131.93 89.64c-.5 0-.7-.2-.6-.6l.9-3.6h5.5l.6-2.4h-5.5l.6-2.4c.2-.6.6-1.2 1.5-1.2h4.4l.6-2.4h-6.4c-2.6 0-3.4.5-4.5 4.5l-1.9 7.3c-.6 2.5.1 3.5 2.1 3.5h5.5c1.1 0 1.8-.6 2.1-1.5l.5-1.2z"/><path d="m45.03 76.94h-5.5l-3.8 14.8c-.1.2.1.5.3.5h4.9c6.2 0 7.2-1.2 8.9-7.7 1.5-5.7.6-7.6-4.8-7.6zm-3.5 12.7h-1.1l2.6-10.3h1.3c2.4 0 2.4.8 1.2 5.2-1.1 4.4-1.7 5.1-4 5.1z"/><path d="m121.93 76.94c-3.2 0-4.6.1-5.5 0l-3.8 14.8c-.1.2.1.5.3.5h3.7l3.3-12.9h1.4c1.8 0 2 .6 1.6 2.5l-2.6 10c-.1.2.1.5.3.5h3.7l2.7-10.4c.9-3.8-.7-5-5.1-5z"/><path d="m90.13 76.94-.6 2.5h4.1c.1 0 .1.1 0 .1-.6.5-1.1 1.2-1.2 1.9l-2.8 10.3c-.1.2.1.5.3.5h3.9l3.3-12.8h2c1.1 0 1.8-.5 2.2-1.5l.4-1z"/><path d="m32.93 92.24 3.8-14.8c.1-.2-.1-.5-.3-.5h-3.9l-3.8 14.8c-.1.2.1.5.3.5z"/><path d="m108.23 76.74c-4.6 0-6.6.8-8.5 7.8-1.6 6.1-.3 7.8 4.4 7.8s6.7-1 8.4-7.8c1.3-4.9 1.1-7.8-4.3-7.8zm-3.4 13.1c-1.8 0-2-.6-.8-5.4 1-4 2-5.3 3.6-5.3 1.8 0 2 .9.8 5.3s-2.3 5.4-3.6 5.4z"/><path d="m26.23 86.14c-.1-.5-.3-.8-.5-1.1v-.1c1.8-.5 2.9-1.6 3.4-3.5.6-2.5-.9-4.5-4.9-4.5h-5.9l-3.8 14.8c-.1.2.1.5.3.5h3.7l3.3-12.9h1.5c1.4 0 1.9.9 1.6 2.1-.4 1.6-1.6 2.4-3 2.4h-.5l1.5 7.4c.2.7.5 1 1.4 1h3.3z"/><path d="m76.23 87.04c-1.6 3.7.5 5.4 4.6 5.4 3.8 0 5.9-.9 6.8-4.4.3-1.2.1-2.5-.6-3.3-1.4-1.5-4.1-1.8-5.1-2.7-.5-.5-.5-1.1-.3-1.6.3-1 .9-1.5 2-1.5 1.7 0 1.8 1 1.3 2.3h3.7c.9-2.6-.3-4.6-4.6-4.6-3.6 0-5.6 1.4-6.3 4.1-.2.7-.1 2 .3 2.7 1 1.7 3.6 1.9 5.1 2.9.6.4.7 1 .5 1.7-.3 1.3-1 1.9-2.2 1.9s-2-.7-1.3-2.9z"/><path d="m11.53 84.14c1.6-.3 3-1.3 3.5-3.2.6-2.4-.9-4-4.6-4h-6.5l-3.9 14.9c-.1.2.1.5.3.5h5.9c4.8 0 6.9-1 7.6-4.3.5-2.1-.7-3.5-2.3-3.9zm-2.6-4.8c1.6 0 2.2.6 1.9 1.8s-1.3 2-2.5 2h-1.9l1-3.8zm-2.1 10.3h-2.1l1.1-4.2h2c1.6 0 2.1 1 1.8 2.2-.2 1-1.3 2-2.8 2z"/></g><path d="m43.73 36.94 8.8-30.8c.9-3.2 4.4-6.1 7.9-6.1h26.9c.4 0 .6.6.2.8-14 9.6-30.9 23.8-43.1 36.5-.3.4-.9.1-.7-.4z" fill="#e12726"/><path d="m64.93 55.44 8.7-30.4c.1-.5-.4-.8-.7-.5-12.8 11-28.3 27.1-37.9 39.3-.2.3-.1.8.3.8h37.7c15.9 0 24.6-4.9 27.7-16.7 2.6-9.6-2.4-16.1-10.5-17.8-.1 0-.3-.3 0-.3 6.8-1.2 13.6-3.9 16.1-13.8 2.6-10.7-5.5-16.6-15-16l-14.4 50.4c-.8 2.7-3.7 5-6.5 5z" fill="#fff"/></svg>