<?xml version="1.0" encoding="UTF-8"?><svg id="Calque_2" xmlns="http://www.w3.org/2000/svg" viewBox="0 0 885.83 165.62"><defs><style>.cls-1{fill:#86bc24;}.cls-1,.cls-2{stroke-width:0px;}.cls-2{fill:#fff;}</style></defs><g id="Calque_1-2"><path class="cls-1" d="m838.88,142.15c0-12.96,10.52-23.48,23.48-23.48s23.47,10.52,23.47,23.48-10.51,23.47-23.47,23.47-23.48-10.51-23.48-23.47"/><path class="cls-2" d="m90.11,79.97c0-14.87-2.87-25.9-8.62-33.09-5.75-7.18-14.47-10.77-26.19-10.77h-12.47v90.94h9.54c13.02,0,22.55-3.86,28.63-11.6,6.07-7.73,9.11-19.56,9.11-35.48m44.46-1.55c0,27.09-7.28,47.97-21.85,62.62-14.56,14.66-35.04,21.99-61.43,21.99H0V.69h54.86c25.45,0,45.1,6.66,58.94,19.99,13.84,13.33,20.76,32.57,20.76,57.74"/><path class="cls-2" d="m276.62,163.03h40.81V0h-40.81v163.02Z"/><path class="cls-2" d="m374.76,102.22c0,10.39,1.36,18.32,4.07,23.77,2.72,5.46,7.27,8.18,13.67,8.18s10.81-2.72,13.42-8.18c2.61-5.45,3.91-13.38,3.91-23.77s-1.32-18.14-3.96-23.4c-2.65-5.28-7.17-7.92-13.57-7.92s-10.74,2.63-13.46,7.86c-2.71,5.24-4.07,13.06-4.07,23.46m76.6,0c0,19.8-5.19,35.25-15.6,46.32-10.4,11.08-24.96,16.62-43.67,16.62s-32.24-5.67-42.84-17c-10.62-11.33-15.92-26.64-15.92-45.95s5.2-35.08,15.61-46.02c10.41-10.94,25-16.41,43.79-16.41,11.61,0,21.88,2.53,30.78,7.6,8.91,5.06,15.78,12.31,20.61,21.75,4.84,9.43,7.25,20.46,7.25,33.08"/><path class="cls-2" d="m467.56,163.03h40.82V41.94h-40.82v121.09Z"/><path class="cls-2" d="m467.56,27.29h40.82V0h-40.82v27.29Z"/><path class="cls-2" d="m591.07,132.14c5.51,0,12.07-1.4,19.73-4.18v30.47c-5.5,2.42-10.73,4.15-15.71,5.18-4.97,1.04-10.81,1.56-17.49,1.56-13.7,0-23.58-3.44-29.65-10.32-6.04-6.88-9.07-17.43-9.07-31.68v-49.92h-14.29v-31.3h14.29V11.02l41.13-7.15v38.08h26.04v31.3h-26.04v47.13c0,7.84,3.69,11.76,11.05,11.76"/><path class="cls-2" d="m685.53,132.14c5.51,0,12.07-1.4,19.73-4.18v30.47c-5.5,2.42-10.73,4.15-15.71,5.18-4.98,1.04-10.79,1.56-17.49,1.56-13.7,0-23.58-3.44-29.63-10.32s-9.08-17.43-9.08-31.68v-49.92h-14.3v-31.3h14.3V10.55l41.12-6.68v38.08h26.05v31.3h-26.05v47.13c0,7.84,3.69,11.76,11.06,11.76"/><path class="cls-2" d="m756.76,87.47c.56-6.63,2.45-11.49,5.69-14.59,3.25-3.1,7.26-4.65,12.05-4.65,5.23,0,9.39,1.74,12.47,5.24,3.1,3.48,4.72,8.15,4.85,13.99h-35.06Zm57.56-33.4c-9.7-9.51-23.46-14.27-41.27-14.27-18.72,0-33.12,5.47-43.21,16.41-10.09,10.94-15.14,26.63-15.14,47.08s5.46,35.07,16.34,45.8c10.89,10.72,26.18,16.09,45.88,16.09,9.46,0,17.6-.65,24.42-1.93,6.78-1.27,13.34-3.57,19.71-6.88l-6.27-27.29c-4.63,1.89-9.03,3.34-13.19,4.3-6.01,1.39-12.59,2.09-19.77,2.09-7.87,0-14.08-1.92-18.63-5.77-4.55-3.85-6.98-9.16-7.26-15.93h72.95v-18.59c0-17.89-4.85-31.59-14.56-41.09"/><path class="cls-2" d="m188.73,87.47c.56-6.63,2.45-11.49,5.69-14.59,3.24-3.1,7.26-4.65,12.06-4.65,5.22,0,9.38,1.74,12.47,5.24,3.1,3.48,4.71,8.15,4.86,13.99h-35.07Zm57.56-33.4c-9.71-9.51-23.46-14.27-41.28-14.27-18.72,0-33.12,5.47-43.21,16.41-10.09,10.94-15.14,26.63-15.14,47.08s5.45,35.07,16.35,45.8c10.88,10.72,26.17,16.09,45.87,16.09,9.46,0,17.6-.65,24.42-1.93,6.78-1.27,13.34-3.57,19.71-6.88l-6.28-27.29c-4.63,1.89-9.03,3.34-13.18,4.3-6.02,1.39-12.6,2.09-19.78,2.09-7.86,0-14.08-1.92-18.63-5.77-4.56-3.85-6.98-9.16-7.26-15.93h72.95v-18.59c0-17.89-4.85-31.59-14.55-41.09"/></g></svg>