<svg viewBox="0 0 108.3 42.1" xmlns="http://www.w3.org/2000/svg"><path d="m0 .6h7.9v7.9h-7.9z" fill="#00c7fd"/><g fill="#0068b5"><path d="m7.7 41.5v-28.3h-7.4v28.2h7.4zm49.3.3v-6.9c-1.1 0-2-.1-2.7-.2-.8-.1-1.4-.4-1.7-.8-.4-.4-.7-1-.8-1.7s-.2-1.6-.2-2.7v-9.9h5.4v-6.4h-5.4v-11h-7.4v27.3c0 2.3.2 4.3.6 5.8s1.1 2.8 2 3.7 2.1 1.6 3.6 2 3.4.6 5.7.6h.9zm42.7-.3v-41.5h-7.4v41.4h7.4zm-62.7-25.5c-2.1-2.2-5-3.4-8.7-3.4-1.8 0-3.4.4-4.9 1.1s-2.7 1.7-3.7 3l-.4.5v-4.1h-7.3v28.2h7.4v-15 1-.5c.1-2.6.7-4.6 2-5.9s2.9-2 4.7-2c2.1 0 3.8.7 4.9 2s1.6 3.1 1.6 5.4v15h7.5v-16c0-3.9-1-7.1-3.1-9.3zm51.3 11.3c0-2-.4-3.9-1.1-5.7s-1.7-3.3-3-4.7c-1.3-1.3-2.8-2.4-4.6-3.1s-3.8-1.1-5.9-1.1-4 .4-5.7 1.2c-1.8.8-3.4 1.8-4.7 3.1s-2.4 2.9-3.1 4.7c-.8 1.8-1.2 3.7-1.2 5.7s.4 4 1.1 5.7c.7 1.8 1.8 3.4 3.1 4.7s2.9 2.4 4.7 3.1c1.8.8 3.9 1.2 6.1 1.2 6.3 0 10.2-2.9 12.6-5.5l-5.4-4.1c-1.1 1.3-3.8 3.2-7.2 3.2-2.1 0-3.8-.5-5.1-1.4-1.3-1-2.2-2.3-2.7-3.9l-.1-.3h22.2zm-22.1-2.6c0-2.1 2.4-5.7 7.5-5.7s7.5 3.6 7.5 5.7z"/><path d="m108.1 37.9c-.1-.3-.3-.6-.6-.9-.2-.2-.5-.4-.9-.6-.3-.1-.7-.2-1.1-.2s-.7.1-1.1.2c-.3.1-.6.3-.9.6-.2.2-.4.5-.6.9-.1.3-.2.7-.2 1.1s.1.7.2 1.1c.1.3.3.6.6.9.2.2.5.4.9.6.3.1.7.2 1.1.2s.7-.1 1.1-.2c.3-.1.6-.3.9-.6.2-.2.4-.5.6-.9.1-.3.2-.7.2-1.1s0-.7-.2-1.1zm-.4 2c-.1.3-.3.5-.5.7s-.4.4-.7.5-.6.2-.9.2-.6-.1-.9-.2-.5-.3-.7-.5-.4-.4-.5-.7-.2-.6-.2-.9.1-.6.2-.9.3-.5.5-.7.4-.4.7-.5.6-.2.9-.2.6.1.9.2.5.3.7.5.4.4.5.7.2.6.2.9-.1.6-.2.9zm-1.6-.7c.2 0 .4-.1.5-.2s.2-.3.2-.6-.1-.5-.3-.7-.5-.2-.8-.2h-1.2v3.1h.6v-1.3h.4l.8 1.3h.6zm-.3-.4h-.7v-.9h.7c.1 0 .2 0 .2.1.1 0 .1.1.2.1 0 .1.1.1.1.2s0 .2-.1.2c0 .1-.1.1-.2.1 0 .1-.1.1-.2.2z"/></g></svg>