<svg viewBox="0 0 126.19 61.36" xmlns="http://www.w3.org/2000/svg"><path d="m61.3 1.54c7.31.01 11.78 6.03 11.77 12.59-.01 6.39-3.62 11.54-8.59 15.24l.24.44 11.59.02 2.52-4.79h-1.22l-1.6 2.37h-5.94c4.11-2.93 7.56-7.51 7.57-13.14.02-9.01-8.09-14.25-16.32-14.27-8.22-.01-16.35 5.2-16.37 14.21-.01 5.64 3.41 10.23 7.52 13.16h-5.95s-1.59-2.39-1.59-2.39h-1.22l2.51 4.79 11.58.02.24-.44c-4.96-3.71-8.55-8.88-8.54-15.27 0-6.55 4.5-12.55 11.8-12.54zm-61.3 47.18c-.01 6.83 5.55 12.41 12.38 12.42s12.41-5.55 12.42-12.38-5.55-12.41-12.38-12.42-12.41 5.55-12.42 12.38zm29.36 11.94 4.51-14.4 6.46 15.1 6.52-15.07 4.46 14.41h3.74s-7.67-24.46-7.67-24.46l-7.03 16.29-6.97-16.32-7.76 24.45zm-8.13-11.9c0 4.99-3.89 8.93-8.85 8.92s-8.83-3.96-8.82-8.95 3.89-8.93 8.85-8.92 8.83 3.95 8.82 8.95zm83.35 12.04 2.49-4.89 12.64.02 2.47 4.9h4.01s-12.76-25.15-12.76-25.15l-12.86 25.11h4.01zm-16.03-20.86c-4.96 0-8.84 3.93-8.85 8.92s3.86 8.94 8.82 8.95c4.04.01 7.55-2.67 8.54-6.34l-8.32-.02v-3.47s12.17.02 12.17.02c.03.27.03.58.03.89 0 6.83-5.59 12.39-12.42 12.38s-12.39-5.6-12.38-12.42c.01-6.83 5.59-12.39 12.42-12.38 4.18 0 7.88 2.09 10.11 5.28l-2.86 2.03c-1.56-2.3-4.21-3.83-7.26-3.84zm-30.4-3-.04 23.78 14.44.03v-3.46s-10.86-.02-10.86-.02v-6.73s10.54.02 10.54.02v-3.47s-10.52-.02-10.52-.02v-6.66s10.88.02 10.88.02v-3.46s-14.44-.03-14.44-.03zm55.26 6.58 4.54 8.94-9.11-.02z" fill="#c01630"/></svg>