<svg viewBox="0 0 153.13 23.4" xmlns="http://www.w3.org/2000/svg"><g fill="#0041c0"><path d="m151.45 20.73c-1.23 1.3-2.63 2.07-4.38 2.42-1.19.24-2.22.29-3.42.17-1.59-.16-2.91-.68-4.19-1.64-1.05-.78-1.8-1.63-2.46-2.76-.51-.88-.8-1.7-.97-2.7-.23-1.39-.17-2.61.2-3.97.83-3.09 3.16-5.27 6.28-5.92 1.79-.37 3.37-.33 5.14.12 1.26.33 2.26.87 3.21 1.76.6.56 1.03 1.12 1.4 1.84.45.86.63 1.69.58 2.65h-5.58c-.12-.75-.48-1.34-1.08-1.8-.78-.59-1.79-.64-2.62-.13-.57.35-.95.84-1.15 1.48-.48 1.52-.5 2.94-.07 4.48.18.65.49 1.16.98 1.62.56.53 1.26.75 2.02.64.47-.07.86-.28 1.18-.63.33-.37.53-.77.61-1.26.06-.34.09-.64.11-.99h5.88c.11 1.78-.45 3.33-1.67 4.62"/><path d="m128.95 0h6.1v4.31h-6.1z"/><path d="m128.95 6.53h6.1v16.32h-6.1z"/><path d="m116.31 8.26c.8-.7 1.57-1.2 2.54-1.64 1.58-.73 3.15-.85 4.82-.36 1.79.52 3.08 1.78 3.64 3.56.27.85.39 1.61.39 2.51v10.54h-6.48v-9.49c0-.32-.04-.59-.13-.89-.17-.55-.53-.95-1.05-1.17-1.15-.49-2.46-.06-3.09 1.02-.26.45-.38.89-.38 1.41v9.1h-6.28v-16.32h5.89z"/><path d="m44.11 8.26c.8-.7 1.57-1.2 2.54-1.64 1.58-.73 3.15-.85 4.82-.36 1.79.52 3.08 1.78 3.64 3.56.27.85.39 1.61.39 2.51v10.54h-6.48v-9.49c0-.32-.04-.59-.13-.89-.17-.55-.53-.95-1.05-1.17-1.15-.49-2.46-.06-3.09 1.02-.26.45-.38.89-.38 1.41v9.1h-6.28v-16.32h5.89z"/><path d="m82.58 16.85c.47.08.86.18 1.31.33.37.12.63.41.71.8.09.42-.03.82-.33 1.12-.31.31-.65.49-1.09.56-.58.09-1.09.04-1.63-.15-.27-.1-.48-.22-.69-.4-.28-.24-.46-.51-.57-.86-.09-.3-.13-.56-.12-.87h-5.98v.35c0 .56.09 1.04.29 1.56.3.79.71 1.4 1.33 1.98.81.75 1.65 1.23 2.72 1.53 2.21.63 4.2.75 6.47.41 1.07-.16 1.94-.45 2.9-.95.42-.22.76-.44 1.13-.75 1.62-1.36 2.21-3.42 1.57-5.43-.24-.76-.63-1.34-1.23-1.86-.82-.71-1.66-1.17-2.7-1.47-.23-.07-.42-.12-.65-.19-1.28-.36-2.38-.59-3.69-.79-.35-.05-.65-.11-1-.19-.16-.04-.29-.08-.44-.15-.37-.17-.53-.6-.36-.97.01-.02.02-.04.03-.06.2-.35.49-.58.88-.7.68-.2 1.31-.18 1.98.05.64.22 1.05.81 1.02 1.49h5.76c0-.71-.11-1.31-.35-1.97-.24-.67-.61-1.19-1.18-1.63-.49-.39-.96-.65-1.54-.88-.57-.22-1.07-.36-1.67-.46-1.43-.25-2.66-.32-4.1-.23-.83.05-1.52.15-2.33.34-1.09.26-1.96.68-2.84 1.37-.75.59-1.24 1.27-1.55 2.17-.14.41-.21.77-.23 1.2-.03.71.07 1.33.34 1.99.47 1.19 1.32 2.04 2.51 2.51.61.24 1.13.4 1.77.53 1.22.25 2.29.45 3.55.67"/><path d="m11.13 15.82h-4.19v-5.36h2.72c.52 0 .96 0 1.47-.04.72-.04 1.31-.36 1.74-.94.23-.31.35-.62.41-.99.05-.32.05-.59.02-.91-.12-1.19-1.1-2.09-2.3-2.09h-4.06v17.36h-6.94v-22.85h11.34c.45 0 .83.01 1.28.03 3.01.16 5.48 1.83 6.76 4.56.66 1.42.89 2.79.72 4.34-.36 3.28-2.65 5.83-5.88 6.54-1.07.25-2 .35-3.09.35"/><path d="m102.17 6.22c-.65-.1-1.2-.14-1.85-.14s-1.21.04-1.85.14c-1.87.29-3.39 1.05-4.76 2.36-1.46 1.41-2.26 3.07-2.45 5.09-.11 1.24-.02 2.31.32 3.51.51 1.84 1.47 3.27 2.99 4.43 1 .77 1.99 1.23 3.22 1.5.87.19 1.63.27 2.53.27s1.65-.08 2.52-.27c1.23-.27 2.22-.73 3.23-1.5l-3.51-3.82c-.56 1.24-2.01 1.79-3.25 1.23-.57-.26-.98-.66-1.23-1.23-.24-.53-.38-1-.46-1.57-.17-1.15-.15-2.14.07-3.28.12-.59.31-1.07.64-1.58.72-1.1 2.2-1.41 3.3-.69.29.19.5.4.69.69.33.5.53.99.64 1.58.22 1.14.25 2.14.07 3.28-.09.57-.23 1.05-.46 1.57l3.51 3.82c1.52-1.16 2.48-2.59 2.99-4.43.33-1.2.43-2.27.32-3.51-.18-2.02-.98-3.69-2.45-5.09-1.38-1.32-2.9-2.07-4.77-2.36"/><path d="m73.53 21.57c-.09-1.35-.14-2.49-.17-3.84-.04-1.77-.06-3.27-.07-5.04-.01-.96-.11-1.76-.35-2.69-.31-1.21-1.02-2.14-2.12-2.75-.66-.37-1.27-.6-2.01-.76-2.35-.51-4.43-.55-6.8-.13-.67.12-1.22.28-1.84.53-1.45.6-2.44 1.69-2.9 3.18-.18.57-.23 1.09-.16 1.68.01.11.04.2.09.3l5.49.13c-.01-.35.03-.65.15-.97.18-.5.53-.86 1.03-1.04.74-.27 1.45-.28 2.19-.04.49.16.84.52.99 1.01.1.31.05.61-.14.88-.16.23-.36.39-.63.49-.16.06-.3.11-.47.15-.76.21-1.42.35-2.19.48-.62.1-1.14.2-1.75.32-.83.17-1.53.35-2.33.61-.74.24-1.32.58-1.89 1.1-.74.68-1.16 1.48-1.31 2.48-.09.67-.07 1.24.08 1.9.38 1.7 1.57 2.96 3.24 3.45 1.86.54 3.6.45 5.4-.27.87-.35 1.54-.84 2.14-1.56l-.39-2.81c-.28.43-.62.72-1.09.93-.44.19-.83.3-1.3.34-.4.04-.74 0-1.12-.09-.31-.09-.55-.23-.77-.47-.19-.2-.3-.42-.36-.68-.09-.41.05-.81.37-1.08.21-.18.42-.31.69-.4.64-.23 1.18-.41 1.84-.6.79-.22 1.44-.46 2.19-.81.07.6.07 1.11-.01 1.7-.06.44-.19.79-.43 1.16l.39 2.81c.12.4.23.73.37 1.12.08.22.18.39.33.56h6.05c-.27-.4-.4-.8-.43-1.28"/><path d="m36.88 21.57c-.09-1.35-.14-2.49-.17-3.84-.04-1.77-.06-3.27-.07-5.04 0-.96-.11-1.76-.35-2.69-.31-1.21-1.02-2.14-2.12-2.75-.66-.37-1.27-.6-2.01-.76-2.35-.51-4.43-.55-6.8-.13-.67.12-1.22.28-1.84.53-1.45.6-2.44 1.69-2.9 3.18-.18.57-.23 1.09-.16 1.68 0 .11.04.2.09.3l5.49.13c0-.35.03-.65.15-.97.18-.5.53-.86 1.03-1.04.74-.27 1.45-.28 2.19-.04.49.16.84.52.99 1.01.1.31.05.61-.14.88-.16.23-.36.39-.63.49-.16.06-.3.11-.47.15-.76.21-1.42.35-2.19.48-.62.1-1.14.2-1.75.32-.83.17-1.53.35-2.33.61-.74.24-1.32.58-1.89 1.1-.74.68-1.16 1.48-1.31 2.48-.09.67-.07 1.24.08 1.9.38 1.7 1.57 2.96 3.24 3.45 1.86.54 3.6.45 5.4-.27.87-.35 1.54-.84 2.14-1.56l-.39-2.81c-.28.43-.62.72-1.09.93-.44.19-.83.3-1.3.34-.4.04-.74 0-1.12-.09-.31-.09-.55-.23-.77-.47-.19-.2-.3-.42-.36-.68-.09-.41.05-.81.37-1.08.22-.18.42-.31.69-.4.64-.23 1.18-.41 1.84-.6.79-.22 1.44-.46 2.19-.81.07.6.07 1.11 0 1.7-.06.44-.19.79-.43 1.16l.39 2.81c.12.4.23.73.37 1.12.08.22.18.39.33.56h6.05c-.26-.4-.39-.8-.43-1.28"/></g></svg>