<svg viewBox="0 0 137.17 24.26" xmlns="http://www.w3.org/2000/svg"><g fill="#eb0a1e"><path d="m19.66.69h-19.66v4.35h7.26v18.53s5.14 0 5.14 0v-18.53h7.26z"/><path d="m32.94 0c-6.7 0-12.13 5.43-12.13 12.13s5.43 12.13 12.13 12.13 12.13-5.43 12.13-12.13-5.43-12.13-12.13-12.13zm5.94 15.8c-.79 2.01-2.58 3.51-4.75 3.89-.39.07-.79.11-1.19.11s-.81-.04-1.19-.11c-2.17-.38-3.96-1.88-4.75-3.89-.45-1.14-.69-2.38-.69-3.67s.25-2.54.69-3.67c.79-2 2.58-3.5 4.75-3.89.39-.07.79-.11 1.19-.11s.81.04 1.19.11c2.17.38 3.96 1.88 4.75 3.89.45 1.14.69 2.38.69 3.67.01 1.3-.24 2.54-.69 3.67z"/><path d="m45.15.69h6.06l5.67 9.84 5.66-9.84h6.06l-9.15 14.42v8.46h-5.15v-8.46z"/><path d="m68.7 12.13c0-6.7 5.43-12.13 12.13-12.13s12.13 5.43 12.13 12.13-5.43 12.13-12.13 12.13-12.13-5.43-12.13-12.13zm12.13 7.67c.4 0 .8-.04 1.19-.11 2.17-.38 3.96-1.89 4.75-3.89.45-1.14.69-2.38.69-3.67s-.25-2.54-.69-3.67c-.79-2-2.58-3.51-4.75-3.89-.39-.07-.79-.11-1.19-.11s-.81.04-1.19.11c-2.17.38-3.97 1.88-4.75 3.89-.45 1.14-.69 2.38-.69 3.67s.25 2.54.69 3.67c.79 2 2.58 3.51 4.75 3.89.38.07.78.11 1.19.11z"/><path d="m129.57 18.52h-9.74l-1.88 5.04h-5.72l9.27-22.88h6.41l9.26 22.88h-5.72zm-1.5-4-3.37-9.04-3.38 9.04z"/><path d="m113.74.69h-19.66v4.35h7.25v18.53h5.15v-18.53h7.26z"/></g></svg>